<svg width="40" height="40" viewBox="0 0 40 40" fill="none" xmlns="http://www.w3.org/2000/svg">
<path fill-rule="evenodd" clip-rule="evenodd" d="M0 23.9425H19.8688V0H0V23.9425Z" fill="#E0C24B" fill-opacity="0.6"/>
<path fill-rule="evenodd" clip-rule="evenodd" d="M23.1575 40H19.6693C18.8541 40 18.1928 39.3362 18.1928 38.5234V28.2357C18.1928 27.4204 18.8541 26.7591 19.6693 26.7591H19.8306C20.2496 26.7591 20.5878 27.0974 20.5878 27.5163C20.5878 27.9353 20.2496 28.2735 19.8306 28.2735H19.7072V38.4856H23.1196V28.2735H21.6961C21.2771 28.2735 20.9389 27.9353 20.9389 27.5163V22.2033C20.9389 21.06 21.8677 20.1312 23.0111 20.1312H37.1628C37.471 20.1312 37.7209 19.8813 37.7209 19.5734V13.4653L33.2607 13.4628C32.8445 13.4628 32.5035 13.1246 32.5035 12.7081L32.4909 7.68033L9.18695 7.6778L9.18468 17.274H31.7362C32.1451 17.274 32.476 16.9434 32.476 16.5345V14.8257C32.476 14.4068 32.8142 14.0685 33.2332 14.0685C33.6522 14.0685 33.9904 14.4068 33.9904 14.8257V16.5345C33.9904 17.7763 32.978 18.7884 31.7362 18.7884H9.18695C8.35176 18.7884 7.67029 18.1094 7.67029 17.274V7.6778C7.67029 6.84236 8.34899 6.16089 9.18695 6.16089H32.4886C33.3238 6.16089 34.0053 6.83984 34.0053 7.6778L34.0157 11.9459H37.7181C38.5538 11.9459 39.2325 12.6248 39.2325 13.4628V19.5708C39.2325 20.7142 38.3039 21.643 37.1603 21.643H23.0086C22.7004 21.643 22.4508 21.8929 22.4508 22.2008V26.7566H23.1522C23.9677 26.7566 24.629 27.4204 24.629 28.2332V38.5209C24.634 39.3362 23.9725 40 23.1575 40Z" fill="#E0C24B"/>
</svg>
