<svg width="40" height="40" viewBox="0 0 40 40" fill="none" xmlns="http://www.w3.org/2000/svg">
<path fill-rule="evenodd" clip-rule="evenodd" d="M38.6194 23.7179H19.2413C18.4859 23.7179 17.8657 23.103 17.8657 22.3461V10.8259C17.8657 10.4575 18.0086 10.1041 18.2766 9.84746L27.921 0.395549C28.457 -0.125322 29.3094 -0.13015 29.8479 0.390468L39.5892 9.84746C39.8572 10.1092 40.0001 10.4575 40.0001 10.8257V22.3359C39.9973 23.103 39.3851 23.7179 38.6194 23.7179Z" fill="#FF7077" fill-opacity="0.6"/>
<path fill-rule="evenodd" clip-rule="evenodd" d="M16.2085 11.6742C16.1628 11.281 15.8287 10.9758 15.4233 10.9758C14.9867 10.9758 14.6327 11.3298 14.6327 11.7663V14.617L5.48452 17.7745L5.5317 17.8807C5.49606 17.9236 5.46444 17.971 5.43771 18.0225L1.93701 24.7758L1.8993 24.8601C1.75891 25.2301 1.91511 25.6548 2.27503 25.8414C2.66263 26.0423 3.13973 25.891 3.34066 25.5034L6.34435 19.709L10.6453 29.3852L10.599 29.5026C10.5422 29.633 10.4632 29.7795 10.3591 29.9247L10.2796 30.0286C9.95099 30.4297 9.49621 30.6573 8.83506 30.6573L2.73624 30.6572L2.68189 30.6369C2.55469 30.5843 2.38641 30.4927 2.21897 30.3573C2.07678 30.2424 1.95704 30.1114 1.86276 29.9603L8.98921 29.9601L9.0814 29.9548C9.47456 29.9091 9.77973 29.575 9.77973 29.1696C9.77973 28.733 9.4258 28.379 8.98921 28.379H0L0.041574 29.2091L0.0569982 29.4109C0.15288 30.3384 0.580648 31.066 1.22507 31.5869C1.66179 31.9399 2.09687 32.1311 2.42161 32.2138L2.51771 32.2383H8.83506L9.04057 32.2335C10.1888 32.1785 11.0598 31.6607 11.644 30.846C12.0072 30.3395 12.1899 29.8384 12.2594 29.4692L12.305 29.227L7.62874 18.7069L14.6327 16.2895V37.5838H9.47054L9.37835 37.5891C8.98519 37.6348 8.68002 37.9689 8.68002 38.3743C8.68002 38.8109 9.03395 39.1649 9.47054 39.1649H20.9219L21.0141 39.1595C21.4073 39.1139 21.7125 38.7797 21.7125 38.3743C21.7125 37.9378 21.3585 37.5838 20.9219 37.5838H16.2138V16.0181L24.0029 18.7061L19.3279 29.227L19.3735 29.4692L19.401 29.597C19.4858 29.9498 19.6661 30.3958 19.9889 30.846C20.6074 31.7086 21.5476 32.2383 22.7978 32.2383H29.1152L29.2113 32.2138L29.3235 32.1822C29.6327 32.0866 30.0196 31.9007 30.4078 31.5869C31.0983 31.0288 31.54 30.2334 31.5913 29.2091L31.6329 28.379H22.6437L22.5515 28.3844C22.1583 28.43 21.8532 28.7642 21.8532 29.1696C21.8532 29.6062 22.2071 29.9601 22.6437 29.9601L29.7701 29.9603C29.6758 30.1114 29.5561 30.2424 29.4139 30.3573L29.3137 30.4333C29.1808 30.5278 29.0528 30.5948 28.951 30.6369L28.8962 30.6572L22.7978 30.6573L22.6368 30.6526C22.0095 30.615 21.5819 30.3544 21.2737 29.9247L21.2003 29.8159C21.1086 29.6711 21.0412 29.5294 20.9954 29.408L20.9871 29.3852L25.2836 19.7183L28.2283 25.4984L28.2749 25.5782C28.494 25.9077 28.9303 26.028 29.2915 25.8439C29.6805 25.6458 29.8352 25.1697 29.637 24.7807L26.1966 18.0275L26.15 17.9478C26.1345 17.9244 26.1178 17.9021 26.1002 17.8809L26.1475 17.7745L16.6834 14.5077L16.5945 14.4826C16.4654 14.4542 16.3351 14.4594 16.2138 14.4932V11.7663L16.2085 11.6742Z" fill="#E86E76"/>
</svg>
